<svg width="512" height="448" viewBox="0 0 512 448" fill="none" xmlns="http://www.w3.org/2000/svg">
<path d="M226.5 60.9C240.8 103.8 226.2 147.1 193.9 157.7C161.6 168.3 123.8 142.1 109.5 99.2C95.2 56.3 109.8 13 142.1 2.40001C174.4 -8.19999 212.2 18 226.5 60.9ZM100.4 166.6C119.3 199 114.7 236.7 90.2 250.7C65.7 264.7 30.5 249.8 11.7 217.4C-7.1 185 -2.7 147.3 21.8 133.3C46.3 119.3 81.5 134.2 100.3 166.6H100.4ZM69.2 369.2C121.6 227.9 214.7 192 256 192C297.3 192 390.4 227.9 442.8 369.2C446.4 378.9 448 389.3 448 399.7V401.3C448 427.1 427.1 448 401.3 448C389.8 448 378.4 446.6 367.3 443.8L279.3 421.8C264 418 248 418 232.7 421.8L144.7 443.8C133.6 446.6 122.2 448 110.7 448C84.9 448 64 427.1 64 401.3V399.7C64 389.3 65.6 378.9 69.2 369.2ZM421.8 250.7C397.3 236.7 392.7 199 411.6 166.6C430.5 134.2 465.6 119.3 490.1 133.3C514.6 147.3 519.2 185 500.3 217.4C481.4 249.8 446.3 264.7 421.8 250.7ZM310.1 157.7C277.8 147.1 263.2 103.8 277.5 60.9C291.8 18 329.6 -8.19999 361.9 2.40001C394.2 13 408.8 56.3 394.5 99.2C380.2 142.1 342.4 168.3 310.1 157.7Z" fill="#FFAB03"/>
</svg>
